<?xml version="1.0" encoding="iso-8859-1"?>
<!-- Uploaded to: SVG Repo, www.svgrepo.com, Generator: SVG Repo Mixer Tools -->
<svg version="1.1" id="Layer_1" xmlns="http://www.w3.org/2000/svg" xmlns:xlink="http://www.w3.org/1999/xlink" 
	 viewBox="0 0 508.056 508.056" xml:space="preserve">
<path style="fill:#194F82;" d="M244.888,0.256c-81.7,4.5-148.9,72-153.1,153.7c-2.2,42.7,12.1,83.9,40.3,115.9
	c32.7,37.1,50.7,82.6,50.7,128.3v95.8c0,7.8,6.3,14.1,14.1,14.1h114.1c7.8,0,14.1-6.3,14.1-14.1l0.2-92.3
	c0-47.1,18.4-94.4,51.8-133.1c25.4-29.4,39.4-67.1,39.4-106C416.488,69.856,338.688-4.944,244.888,0.256z M296.888,479.756h-86
	v-52.1h86V479.756z M253.888,255.056c-32.3-30.8-75.1-80.3-75.1-106.8c0-21.1,15.5-38.3,34.5-38.3c18.9,0,25.4,7,28.6,12.3
	c5.5,9,18.6,9,24.1,0c3.2-5.3,9.7-12.3,28.6-12.3c19,0,34.5,17.2,34.5,38.3C329.188,173.956,286.288,223.856,253.888,255.056z
	 M355.688,250.056c-37.3,43.3-58.1,96.2-58.6,149.4h-29v-119c20.2-19,89.3-87.1,89.3-132.3c0-36.7-28.1-66.5-62.7-66.5
	c-16.8,0-30.4,4.1-40.7,12.2c-10.3-8.1-23.9-12.2-40.7-12.2c-34.6,0-62.7,29.8-62.7,66.5c0,46.3,68.9,113.5,89.3,132.3v118.8h-29
	v-1.4c0-52.5-20.5-104.7-57.7-146.9c-23.3-26.4-35.1-60.4-33.3-95.8c3.5-67.5,59-123.3,126.5-127c77.6-4.3,141.8,57.5,141.8,134.1
	C388.288,194.656,376.688,225.756,355.688,250.056z"/>
<path style="fill:#56ACE0;" d="M294.688,109.956c-18.9,0-25.4,7-28.6,12.3c-5.5,9-18.6,9-24.1,0c-3.2-5.3-9.7-12.3-28.6-12.3
	c-19,0-34.5,17.2-34.5,38.3c0,26.5,42.7,76.1,75.1,106.8c32.4-31.2,75.2-81.1,75.2-106.8
	C329.188,127.056,313.688,109.956,294.688,109.956z"/>
<rect x="210.888" y="427.656" style="fill:#FFFFFF;" width="86" height="52.1"/>
<path style="fill:#FFC10D;" d="M355.688,250.056c21-24.3,32.5-55.4,32.5-87.6c0-76.5-64.2-138.3-141.8-134.1
	c-67.5,3.7-123,59.5-126.5,127c-1.8,35.3,10,69.3,33.3,95.8c37.2,42.2,57.7,94.4,57.7,146.9v1.4h29v-118.9
	c-20.3-18.8-89.3-86-89.3-132.3c0-36.7,28.1-66.5,62.7-66.5c16.8,0,30.4,4.1,40.7,12.2c10.3-8.1,23.9-12.2,40.7-12.2
	c34.6,0,62.7,29.8,62.7,66.5c0,45.2-69,113.3-89.3,132.3v118.9h29C297.688,346.256,318.388,293.256,355.688,250.056z"/>
</svg>